Coordinates
version=1
nRows=14
nColumns=40
inDegrees=yes

Units are S.I. units (second, meters, Newtons, ...)
If the header above contains a line with 'inDegrees', this indicates whether rotational values are in degrees (yes) or radians (no).

endheader
time	pelvis_tilt	pelvis_list	pelvis_rotation	pelvis_tx	pelvis_ty	pelvis_tz	hip_flexion_r	hip_adduction_r	hip_rotation_r	knee_angle_r	knee_angle_r_beta	ankle_angle_r	subtalar_angle_r	mtp_angle_r	hip_flexion_l	hip_adduction_l	hip_rotation_l	knee_angle_l	knee_angle_l_beta	ankle_angle_l	subtalar_angle_l	mtp_angle_l	lumbar_extension	lumbar_bending	lumbar_rotation	arm_flex_r	arm_add_r	arm_rot_r	elbow_flex_r	pro_sup_r	wrist_flex_r	wrist_dev_r	arm_flex_l	arm_add_l	arm_rot_l	elbow_flex_l	pro_sup_l	wrist_flex_l	wrist_dev_l
      0.00500000	     -0.39968409	      2.98659540	     -1.61510592	      0.24842457	      0.91580589	     -1.21081106	      0.80315174	    -21.28628454	    -37.66883149	      5.06671778	      0.08843091	     -8.10570131	      7.03290833	      0.00000000	      1.38285261	    -13.91711100	    -39.11977004	      5.06278485	      0.08836226	     -6.57395821	     10.94739627	      0.00000000	    -13.34775200	     -2.51171970	     -2.42242218	     42.47375291	    -15.70638816	     42.47375291	     75.74467269	     44.69012737	      0.00000000	      0.00000000	     42.47375291	    -15.70638816	     42.47375291	     75.74467269	     44.69012737	      0.00000000	      0.00000000
      0.01000000	     -0.36169236	      3.03609255	     -1.66271419	      0.24833419	      0.91587313	     -1.21073137	      0.78679099	    -21.32976057	    -37.54206608	      5.05079274	      0.08815296	     -8.12014467	      6.86487024	      0.00000000	      1.30312875	    -13.82196548	    -39.08614667	      4.95417553	      0.08646667	     -6.65394681	     10.76762958	      0.00000000	    -13.38791432	     -2.57114024	     -2.30087635	     42.49306340	    -15.69807889	     42.49306340	     75.72964093	     44.70335038	      0.00000000	      0.00000000	     42.49306340	    -15.69807889	     42.49306340	     75.72964093	     44.70335038	      0.00000000	      0.00000000
      0.01500000	     -0.37874845	      3.08234761	     -1.68751975	      0.24832437	      0.91578073	     -1.21066475	      0.89549482	    -21.45337090	    -37.67325640	      5.24890558	      0.09161068	     -8.00494791	      7.15312908	      0.00000000	      1.31578680	    -13.77559654	    -39.11567742	      4.95451737	      0.08647264	     -6.63732090	     10.79288833	      0.00000000	    -13.35478927	     -2.40827770	     -1.93458077	     42.71954070	    -15.60854109	     42.71954070	     75.59185273	     44.79000419	      0.00000000	      0.00000000	     42.71954070	    -15.60854109	     42.71954070	     75.59185273	     44.79000419	      0.00000000	      0.00000000
      0.02000000	     -0.37945374	      3.02145178	     -1.64306731	      0.24827349	      0.91580130	     -1.21074313	      0.86045116	    -21.36668115	    -37.66408523	      5.19736970	      0.09071121	     -8.04839095	      7.05979874	      0.00000000	      1.35843061	    -13.86679263	    -39.10770985	      5.02829081	      0.08776023	     -6.60127819	     10.85691877	      0.00000000	    -13.36565562	     -2.43023409	     -2.10421856	     42.90257517	    -15.53818839	     42.90257517	     75.48891474	     44.84780141	      0.00000000	      0.00000000	     42.90257517	    -15.53818839	     42.90257517	     75.48891474	     44.84780141	      0.00000000	      0.00000000
      0.02500000	     -0.38033082	      3.06507035	     -1.66626453	      0.24822853	      0.91576213	     -1.21070630	      0.90548676	    -21.44191540	    -37.64374411	      5.26993169	      0.09197766	     -7.99577299	      7.12092187	      0.00000000	      1.33928140	    -13.80317164	    -39.10787928	      4.97897063	      0.08689943	     -6.64522365	     10.85122575	      0.00000000	    -13.37787571	     -2.68935799	     -2.38736312	     43.38089900	    -15.37217092	     43.38089900	     75.28226318	     44.94984534	      0.00000000	      0.00000000	     43.38089900	    -15.37217092	     43.38089900	     75.28226318	     44.94984534	      0.00000000	      0.00000000
      0.03000000	     -0.35937308	      3.00440408	     -1.65306955	      0.24814936	      0.91583718	     -1.21071342	      0.84788949	    -21.32321209	    -37.50582947	      5.16520009	      0.09014975	     -8.08213913	      6.77581930	      0.00000000	      1.34241517	    -13.88665631	    -39.10896155	      5.02463245	      0.08769638	     -6.62463977	     10.87581996	      0.00000000	    -13.42059006	     -2.59289520	     -2.38147598	     43.38486404	    -15.37063087	     43.38486404	     75.27981909	     44.95136584	      0.00000000	      0.00000000	     43.38486404	    -15.37063087	     43.38486404	     75.27981909	     44.95136584	      0.00000000	      0.00000000
      0.03500000	     -0.36015177	      3.08458106	     -1.79292201	      0.24800746	      0.91574320	     -1.21040096	      1.05236193	    -21.51626591	    -37.58504032	      5.48126053	      0.09566604	     -7.91148588	      7.12956886	      0.00000000	      1.27024041	    -13.76713496	    -39.11903035	      4.91642571	      0.08580782	     -6.60802880	     10.65189209	      0.00000000	    -13.43638747	     -2.23378459	     -1.36149194	     43.82517443	    -15.23094858	     43.82517443	     75.13197605	     44.98733274	      0.00000000	      0.00000000	     43.82517443	    -15.23094858	     43.82517443	     75.13197605	     44.98733274	      0.00000000	      0.00000000
      0.04000000	     -0.35597046	      2.90584496	     -1.57163476	      0.24802817	      0.91583779	     -1.21084419	      0.82982159	    -21.22587808	    -37.58671747	      5.20038218	      0.09076379	     -8.03449839	      6.80450982	      0.00000000	      1.42956201	    -14.05366853	    -39.12149670	      5.19629180	      0.09069240	     -6.49388144	     11.01247969	      0.00000000	    -13.43677753	     -1.98263362	     -1.60964628	     43.85691451	    -15.22202523	     43.85691451	     75.12428489	     44.98858880	      0.00000000	      0.00000000	     43.85691451	    -15.22202523	     43.85691451	     75.12428489	     44.98858880	      0.00000000	      0.00000000
      0.04500000	     -0.33065097	      2.99712373	     -1.60861059	      0.24793816	      0.91582295	     -1.21078280	      0.88295514	    -21.37549776	    -37.59365385	      5.33667540	      0.09314256	     -8.00190775	      6.84282843	      0.00000000	      1.37707861	    -13.92540887	    -39.11184712	      5.12450912	      0.08943956	     -6.55315112	     10.87424888	      0.00000000	    -13.48682137	     -2.53957552	     -2.33967920	     43.96082694	    -15.19531152	     43.96082694	     75.10477005	     44.99116549	      0.00000000	      0.00000000	     43.96082694	    -15.19531152	     43.96082694	     75.10477005	     44.99116549	      0.00000000	      0.00000000
      0.05000000	     -0.33384395	      2.97776990	     -1.59551223	      0.24788792	      0.91580380	     -1.21083174	      0.89576116	    -21.36130462	    -37.56379592	      5.35925909	      0.09353672	     -7.97665757	      6.75785720	      0.00000000	      1.39614305	    -13.95402560	    -39.10840168	      5.14770409	      0.08984439	     -6.55896941	     10.89730633	      0.00000000	    -13.51354363	     -2.48203536	     -2.26365189	     44.17950133	    -15.14015879	     44.17950133	     75.06521180	     44.99561811	      0.00000000	      0.00000000	     44.17950133	    -15.14015879	     44.17950133	     75.06521180	     44.99561811	      0.00000000	      0.00000000
      0.05500000	     -0.32057947	      2.79621124	     -1.43737276	      0.24778132	      0.91587945	     -1.21110001	      0.75647549	    -21.10515365	    -37.61731777	      5.20316708	      0.09081240	     -8.08110647	      6.60741787	      0.00000000	      1.53279406	    -14.24926062	    -39.13126072	      5.42855078	      0.09474608	     -6.39371764	     11.22041430	      0.00000000	    -13.55742951	     -2.17657593	     -2.31721996	     44.20380234	    -15.13451904	     44.20380234	     75.06156275	     44.99598217	      0.00000000	      0.00000000	     44.20380234	    -15.13451904	     44.20380234	     75.06156275	     44.99598217	      0.00000000	      0.00000000
      0.06000000	     -0.26374293	      2.80751186	     -1.56357526	      0.24760172	      0.91597273	     -1.21084535	      0.81732446	    -21.14040683	    -37.46865179	      5.32334381	      0.09290988	     -8.03548385	      6.46319794	      0.00000000	      1.38446625	    -14.18367114	    -39.09837327	      5.26148719	      0.09183028	     -6.49162928	     10.92512208	      0.00000000	    -13.68173782	     -2.21017921	     -2.23642862	     44.21286675	    -15.13217022	     44.21286675	     75.05971932	     44.99624007	      0.00000000	      0.00000000	     44.21286675	    -15.13217022	     44.21286675	     75.05971932	     44.99624007	      0.00000000	      0.00000000
      0.06500000	     -0.25996349	      2.77782297	     -1.50576348	      0.24751028	      0.91602164	     -1.21097765	      0.75902918	    -21.06714275	    -37.40411847	      5.20373408	      0.09082229	     -8.19793192	      6.24276095	      0.00000000	      1.43198248	    -14.22546770	    -39.07317923	      5.32211731	      0.09288847	     -6.52894865	     10.80754399	      0.00000000	    -13.68679938	     -2.12088420	     -2.22401212	     44.22389908	    -15.12952891	     44.22389908	     75.05789424	     44.99645131	      0.00000000	      0.00000000	     44.22389908	    -15.12952891	     44.22389908	     75.05789424	     44.99645131	      0.00000000	      0.00000000
      0.07000000	     -0.26667211	      2.97266532	     -1.56270034	      0.24741203	      0.91586609	     -1.21090123	      0.92707535	    -21.40068203	    -37.47620545	      5.52886748	      0.09649694	     -7.96209980	      6.50736493	      0.00000000	      1.40067539	    -13.98303697	    -39.11947258	      5.22325056	      0.09116292	     -6.52405048	     10.92680661	      0.00000000	    -13.66757543	     -2.47435506	     -2.31075849	     44.23916389	    -15.12587797	     44.23916389	     75.05533648	     44.99676570	      0.00000000	      0.00000000	     44.23916389	    -15.12587797	     44.23916389	     75.05533648	     44.99676570	      0.00000000	      0.00000000
